# xmcd CD database file
#
# Track frame offsets:
#	150
#	31477
#	81260
#	115133
#	157409
#	192968
#
# Disc length: 3089 seconds
#
# Revision: 0
# Processed by: cddbd v1.5.2PL0 Copyright (c) Steve Scherf et al.
# Submitted via: CDex 1.78
#
DISCID=4d0c0f06
DTITLE=Purvi Parikh with Ustad Shujaat Khan - Piya Pardesi
DYEAR=2006
DGENRE=India overig
TTITLE0=Piya Pardesi
TTITLE1=Mhara Saynara
TTITLE2=Takat Hare Nain
TTITLE3=Mhare Dheemi Dheemi Payal Baaje Re
TTITLE4=Bol Suva Raam Raam
TTITLE5=Chunar Mori
EXTD=YEAR: 2006
EXTT0=
EXTT1=
EXTT2=
EXTT3=
EXTT4=
EXTT5=
PLAYORDER=
